<svg width="1100" height="28" viewBox="0 0 1100 28" fill="none" xmlns="http://www.w3.org/2000/svg">
<path d="M549.999 27.5963C549.904 27.5963 549.807 27.5598 549.734 27.4869L536.434 14.1872C534.864 12.6175 534 10.5354 534 8.32419C534 6.09628 534.864 4.00482 536.434 2.43414C538.003 0.865541 540.088 0.00208313 542.308 0H542.31C544.53 0 546.618 0.864499 548.187 2.43414L549.999 4.24646L551.812 2.43414C553.381 0.864499 555.469 0 557.688 0H557.697C559.913 0.00208313 561.997 0.866582 563.566 2.43414C565.136 4.00482 566 6.09107 566 8.31065C566 10.5302 565.136 12.6165 563.566 14.1872L550.265 27.4869C550.191 27.5598 550.095 27.5963 549.999 27.5963ZM542.31 0.750968C542.31 0.750968 542.309 0.750968 542.308 0.750968C540.289 0.75201 538.392 1.53839 536.965 2.96534C535.537 4.39332 534.751 6.29626 534.751 8.32419C534.751 10.3354 535.537 12.229 536.965 13.656L549.999 26.6901L563.034 13.656C564.462 12.228 565.248 10.3302 565.248 8.31065C565.248 6.29105 564.462 4.39332 563.034 2.96534C561.607 1.53943 559.711 0.753051 557.696 0.750968C557.692 0.750968 557.689 0.750968 557.687 0.750968C555.669 0.750968 553.77 1.53631 552.342 2.96534L550.264 5.04326C550.117 5.19012 549.88 5.19012 549.733 5.04326L547.655 2.96534C546.229 1.53735 544.329 0.750968 542.31 0.750968Z" fill="black"/>
<line x1="-4.37114e-08" y1="13.5" x2="510" y2="13.5" stroke="black"/>
<line x1="590" y1="13.5" x2="1100" y2="13.5" stroke="black"/>
</svg>

