<svg width="100" height="100" viewBox="0 0 100 100" fill="none" xmlns="http://www.w3.org/2000/svg">
<circle cx="50" cy="50" r="50" fill="#E0E7EC"/>
<path d="M74 47.8057V50.0137C73.997 55.1891 72.3212 60.2249 69.2224 64.3701C66.1236 68.5153 61.7679 71.5477 56.8049 73.0151C51.8418 74.4825 46.5374 74.3063 41.6827 72.5127C36.828 70.7192 32.6832 67.4044 29.8663 63.0627C27.0494 58.721 25.7115 53.5851 26.052 48.4209C26.3925 43.2567 28.3933 38.3409 31.7559 34.4067C35.1184 30.4725 39.6627 27.7307 44.7108 26.5901C49.759 25.4495 55.0406 25.9713 59.768 28.0777" stroke="black" stroke-width="2" stroke-linecap="round" stroke-linejoin="round"/>
<path d="M73.9998 30.814L49.9998 54.838L42.7998 47.638" stroke="black" stroke-width="2" stroke-linecap="round" stroke-linejoin="round"/>
</svg>
