<svg width="100" height="100" viewBox="0 0 100 100" fill="none" xmlns="http://www.w3.org/2000/svg">
<circle cx="50" cy="50" r="50" fill="#FADCE1"/>
<path d="M58.596 58.5469C53.459 62.7817 46.0413 62.7817 40.9043 58.5469" stroke="black" stroke-width="1.96138" stroke-linecap="round" stroke-linejoin="round"/>
<path d="M64.2066 63.5589C62.1906 63.559 60.5566 65.1934 60.5566 67.2092C60.5566 67.8769 60.7399 68.532 61.0864 69.1028L61.2955 69.4112L67.7765 77.719L74.2956 69.3601C75.4856 67.734 75.132 65.4511 73.506 64.2611C71.88 63.0711 69.5971 63.4246 68.407 65.0507C68.2746 65.2317 68.1591 65.4245 68.062 65.6268C67.9861 65.7842 67.7968 65.8504 67.6393 65.7743C67.5748 65.7432 67.5228 65.6912 67.4917 65.6268C66.8893 64.3597 65.6095 63.5542 64.2066 63.5589Z" stroke="black" stroke-width="1.96138" stroke-linecap="round" stroke-linejoin="round"/>
<path d="M23.6499 47.3363C21.634 47.3364 19.9999 48.9707 20 50.9865C20 51.6543 20.1832 52.3093 20.5298 52.8802L20.7389 53.1886L27.2199 61.4964L33.739 53.1374C34.929 51.5113 34.5754 49.2285 32.9494 48.0384C31.3233 46.8484 29.0404 47.202 27.8504 48.828C27.7179 49.009 27.6025 49.2019 27.5054 49.404C27.4294 49.5615 27.2402 49.6276 27.0826 49.5516C27.0182 49.5205 26.9662 49.4685 26.9351 49.404C26.3327 48.137 25.0529 47.3315 23.6499 47.3363Z" stroke="black" stroke-width="1.96138" stroke-linecap="round" stroke-linejoin="round"/>
<path d="M56.9956 23.0023C54.9797 23.0024 53.3456 24.6367 53.3457 26.6526C53.3457 27.3203 53.5289 27.9753 53.8755 28.5462L54.0846 28.8546L60.5656 37.1624L67.0847 28.8034C68.2747 27.1774 67.9211 24.8945 66.2951 23.7045C64.669 22.5144 62.3861 22.868 61.1961 24.494C61.0636 24.675 60.9482 24.8679 60.8511 25.0701C60.7751 25.2276 60.5859 25.2937 60.4283 25.2177C60.3639 25.1866 60.3119 25.1346 60.2808 25.0701C59.6784 23.8031 58.3986 22.9975 56.9956 23.0023Z" stroke="black" stroke-width="1.96138" stroke-linecap="round" stroke-linejoin="round"/>
<path d="M55.8867 70.4175C53.9478 71.0175 51.8873 71.3406 49.7513 71.3406C42.5961 71.3406 36.2877 67.7154 32.5625 62.2014" stroke="black" stroke-width="1.96138" stroke-linecap="round" stroke-linejoin="round"/>
<path d="M65.7461 37.4263C68.7032 41.0094 70.4796 45.6031 70.4796 50.6118C70.4796 53.8594 69.7327 56.9327 68.4014 59.6691" stroke="black" stroke-width="1.96138" stroke-linecap="round" stroke-linejoin="round"/>
<path d="M30.582 42.7053C33.6898 35.1791 41.1012 29.8828 49.7497 29.8828" stroke="black" stroke-width="1.96138" stroke-linecap="round" stroke-linejoin="round"/>
<path d="M45.8692 47.3705C44.9141 45.2207 42.397 44.2522 40.2472 45.2073C39.2831 45.6356 38.5124 46.4064 38.084 47.3705" stroke="black" stroke-width="1.96138" stroke-miterlimit="10" stroke-linecap="round"/>
<path d="M61.4161 47.3705C60.4609 45.2207 57.9438 44.2522 55.7941 45.2073C54.83 45.6356 54.0592 46.4064 53.6309 47.3705" stroke="black" stroke-width="1.96138" stroke-miterlimit="10" stroke-linecap="round"/>
</svg>
