<svg width="100" height="100" viewBox="0 0 100 100" fill="none" xmlns="http://www.w3.org/2000/svg">
<circle cx="50" cy="50" r="50" fill="#FADCE1"/>
<path d="M67.9949 66.2489L66.6123 41.1786H59.7055V39.1546C59.7055 34.1065 55.5989 30 50.551 30C45.5031 30 41.3966 34.1067 41.3966 39.1546V41.1786H34.1908L33.0014 66.3573L33.0002 66.4009C32.9904 67.307 33.3505 68.1963 33.9876 68.8398C34.6248 69.484 35.5102 69.8538 36.4167 69.8538H64.5836C65.5178 69.8538 66.4224 69.4647 67.0651 68.7858C67.7075 68.1069 68.0465 67.1822 67.9949 66.2489ZM43.7843 39.1546C43.7843 35.4233 46.8197 32.3876 50.551 32.3876C54.2821 32.3876 57.3178 35.4233 57.3178 39.1546V41.1786H43.784V39.1546H43.7843ZM65.3308 67.1442C65.137 67.3486 64.8647 67.466 64.5834 67.466H36.4165C36.1435 67.466 35.877 67.3548 35.6847 67.1603C35.497 66.971 35.3892 66.7106 35.3874 66.4436L36.4681 43.5663H41.3962V46.5898C41.3962 47.2491 41.9306 47.7836 42.59 47.7836C43.2494 47.7836 43.7839 47.2491 43.7839 46.5898V43.5663H57.3176V46.5898C57.3176 47.2491 57.8521 47.7836 58.5114 47.7836C59.1708 47.7836 59.7051 47.2491 59.7051 46.5898V43.5663H64.3522L65.6102 66.3806C65.6264 66.6616 65.5243 66.9399 65.3308 67.1442Z" fill="black"/>
</svg>
