<svg width="100" height="100" viewBox="0 0 100 100" fill="none" xmlns="http://www.w3.org/2000/svg">
<circle cx="50" cy="50" r="50" fill="#FADCE1"/>
<path d="M50 26C45.7983 26.0011 41.6704 27.105 38.029 29.2013C34.3876 31.2976 31.3602 34.313 29.2493 37.946C27.1385 41.579 26.0181 45.7024 26.0002 49.9041C25.9823 54.1058 27.0676 58.2385 29.1474 61.8894L26.9864 69.4534C26.8453 69.9472 26.8389 70.4698 26.9677 70.9669C27.0965 71.4641 27.356 71.9178 27.7192 72.2809C28.0824 72.6441 28.536 72.9035 29.0332 73.0323C29.5304 73.1611 30.0529 73.1546 30.5468 73.0135L38.1108 70.8526C41.3042 72.6732 44.8731 73.7361 48.5424 73.959C52.2116 74.182 55.883 73.5593 59.2734 72.1388C62.6638 70.7182 65.6826 68.5379 68.097 65.766C70.5114 62.9941 72.2569 59.7047 73.1988 56.1514C74.1406 52.5982 74.2538 48.8761 73.5294 45.2722C72.8051 41.6683 71.2626 38.2789 69.021 35.3655C66.7794 32.452 63.8986 30.0924 60.6007 28.4686C57.3028 26.8448 53.676 26.0003 50 26ZM50 72.08C46.0344 72.0827 42.1415 71.0159 38.7314 68.9919C38.619 68.9249 38.494 68.8817 38.3643 68.8649C38.2345 68.848 38.1027 68.8579 37.9769 68.8939L30.0192 71.1676C29.8546 71.2146 29.6804 71.2167 29.5147 71.1738C29.3489 71.1308 29.1977 71.0443 29.0767 70.9233C28.9556 70.8022 28.8692 70.651 28.8262 70.4852C28.7833 70.3195 28.7855 70.1453 28.8325 69.9807L31.106 62.0232C31.1419 61.8974 31.1517 61.7656 31.1349 61.6359C31.1181 61.5061 31.0749 61.3812 31.008 61.2688C28.521 57.0788 27.4896 52.184 28.0745 47.3468C28.6593 42.5096 30.8276 38.0016 34.2415 34.5251C37.6554 31.0487 42.1232 28.7989 46.949 28.1263C51.7748 27.4536 56.6875 28.3959 60.922 30.8064C65.1564 33.2169 68.4747 36.9601 70.36 41.453C72.2453 45.9459 72.5917 50.9362 71.3452 55.6465C70.0988 60.3568 67.3294 64.5227 63.4687 67.495C59.6079 70.4674 54.8724 72.0794 50 72.08ZM62.1227 54.4503L57.2124 51.6444C56.7682 51.3908 56.2644 51.26 55.7529 51.2655C55.2414 51.2709 54.7406 51.4124 54.3018 51.6753L50.9882 53.6635C48.9823 52.6472 47.3528 51.0176 46.3365 49.0116L48.3246 45.6981C48.5875 45.2593 48.7289 44.7585 48.7344 44.247C48.7398 43.7355 48.609 43.2318 48.3555 42.7876L45.5497 37.8772C45.3206 37.4774 44.9901 37.1451 44.5916 36.9139C44.1931 36.6826 43.7406 36.5606 43.2799 36.56C41.2481 36.5605 39.2993 37.3659 37.86 38.7999C36.4206 40.2339 35.608 42.1797 35.5999 44.2114C35.5962 46.8612 36.1149 49.4858 37.1263 51.935C38.1378 54.3842 39.6221 56.61 41.4945 58.485C43.3669 60.3601 45.5905 61.8476 48.0383 62.8625C50.486 63.8775 53.1098 64.3999 55.7596 64.4H55.7885C57.8202 64.3919 59.766 63.5793 61.2 62.1399C62.634 60.7006 63.4394 58.7518 63.4399 56.72C63.4394 56.2593 63.3173 55.8068 63.0861 55.4083C62.8548 55.0098 62.5225 54.6794 62.1227 54.4503ZM55.7858 62.48H55.7598C53.3623 62.48 50.9883 62.0073 48.7737 61.0891C46.559 60.1708 44.5471 58.825 42.8531 57.1285C41.159 55.432 39.816 53.4182 38.9009 51.2023C37.9858 48.9863 37.5165 46.6117 37.5199 44.2142C37.5265 42.691 38.1363 41.2324 39.2158 40.1577C40.2953 39.083 41.7566 38.4798 43.2799 38.48C43.4022 38.4802 43.5224 38.5126 43.6282 38.574C43.7341 38.6353 43.8218 38.7235 43.8827 38.8297L46.6885 43.7403C46.773 43.8884 46.8166 44.0563 46.8148 44.2268C46.8129 44.3972 46.7658 44.5642 46.6782 44.7104L44.4248 48.466C44.3451 48.5988 44.2987 48.7488 44.2896 48.9034C44.2805 49.0579 44.3089 49.2124 44.3724 49.3536C45.6254 52.1423 47.8577 54.3746 50.6464 55.6276C50.7876 55.6911 50.9421 55.7196 51.0967 55.7104C51.2513 55.7013 51.4014 55.6548 51.5341 55.5751L55.2895 53.3218C55.4358 53.2342 55.6027 53.187 55.7732 53.1851C55.9437 53.1833 56.1117 53.2268 56.2598 53.3113L61.1703 56.1174C61.2764 56.1782 61.3646 56.266 61.426 56.3718C61.4874 56.4776 61.5198 56.5977 61.5199 56.72C61.5201 58.2432 60.9168 59.7045 59.8422 60.784C58.7675 61.8635 57.309 62.4733 55.7858 62.48Z" fill="black"/>
</svg>
