<svg width="100" height="100" viewBox="0 0 100 100" fill="none" xmlns="http://www.w3.org/2000/svg">
<path d="M23.5 24.6001L28 27.7501L32.5 24.6001" stroke="black" stroke-width="0.783448" stroke-linecap="round" stroke-linejoin="round"/>
<path d="M19 31.8V22.8C19 21.8059 19.8059 21 20.8 21H35.2C36.1941 21 37 21.8059 37 22.8V31.8C37 32.7941 36.1941 33.6 35.2 33.6H20.8C19.8059 33.6 19 32.7941 19 31.8Z" stroke="black" stroke-width="0.783448"/>
<path d="M57.3284 42H48.9154C46.2007 42 44 44.2007 44 46.9154V55.3284C44 58.043 46.2007 60.2437 48.9154 60.2437H57.3284C60.043 60.2437 62.2437 58.043 62.2437 55.3284V46.9154C62.2438 44.2007 60.0431 42 57.3284 42Z" stroke="black" stroke-width="0.780102" stroke-miterlimit="10"/>
<path d="M53.1219 55.5256C55.554 55.5256 57.5256 53.554 57.5256 51.1219C57.5256 48.6899 55.554 46.7183 53.1219 46.7183C50.6899 46.7183 48.7183 48.6899 48.7183 51.1219C48.7183 53.554 50.6899 55.5256 53.1219 55.5256Z" stroke="black" stroke-width="0.780102" stroke-miterlimit="10"/>
<path d="M58.469 46.7184C58.9902 46.7184 59.4127 46.2959 59.4127 45.7747C59.4127 45.2535 58.9902 44.8311 58.469 44.8311C57.9479 44.8311 57.5254 45.2535 57.5254 45.7747C57.5254 46.2959 57.9479 46.7184 58.469 46.7184Z" fill="black"/>
<circle cx="50" cy="50" r="50" fill="#E0E7EC"/>
<path d="M58.596 58.5469C53.459 62.7817 46.0413 62.7817 40.9043 58.5469" stroke="black" stroke-width="1.96138" stroke-linecap="round" stroke-linejoin="round"/>
<path d="M64.2066 63.5589C62.1906 63.559 60.5566 65.1934 60.5566 67.2092C60.5566 67.8769 60.7399 68.532 61.0864 69.1028L61.2955 69.4112L67.7765 77.719L74.2956 69.3601C75.4856 67.734 75.132 65.4511 73.506 64.2611C71.88 63.0711 69.5971 63.4246 68.407 65.0507C68.2746 65.2317 68.1591 65.4245 68.062 65.6268C67.9861 65.7842 67.7968 65.8504 67.6393 65.7743C67.5748 65.7432 67.5228 65.6912 67.4917 65.6268C66.8893 64.3597 65.6095 63.5542 64.2066 63.5589Z" stroke="black" stroke-width="1.96138" stroke-linecap="round" stroke-linejoin="round"/>
<path d="M23.6499 47.3363C21.634 47.3364 19.9999 48.9707 20 50.9865C20 51.6543 20.1832 52.3093 20.5298 52.8802L20.7389 53.1886L27.2199 61.4964L33.739 53.1374C34.929 51.5113 34.5754 49.2285 32.9494 48.0384C31.3233 46.8484 29.0404 47.202 27.8504 48.828C27.7179 49.009 27.6025 49.2019 27.5054 49.404C27.4294 49.5615 27.2402 49.6276 27.0826 49.5516C27.0182 49.5205 26.9662 49.4685 26.9351 49.404C26.3327 48.137 25.0529 47.3315 23.6499 47.3363Z" stroke="black" stroke-width="1.96138" stroke-linecap="round" stroke-linejoin="round"/>
<path d="M56.9966 23.0023C54.9807 23.0024 53.3466 24.6367 53.3467 26.6526C53.3467 27.3203 53.5299 27.9753 53.8764 28.5462L54.0855 28.8546L60.5666 37.1624L67.0856 28.8034C68.2757 27.1774 67.9221 24.8945 66.296 23.7045C64.67 22.5144 62.3871 22.868 61.1971 24.494C61.0646 24.675 60.9491 24.8679 60.8521 25.0701C60.7761 25.2276 60.5868 25.2937 60.4293 25.2177C60.3649 25.1866 60.3129 25.1346 60.2818 25.0701C59.6794 23.8031 58.3996 22.9975 56.9966 23.0023Z" stroke="black" stroke-width="1.96138" stroke-linecap="round" stroke-linejoin="round"/>
<path d="M55.8857 70.4178C53.9468 71.0178 51.8863 71.3409 49.7503 71.3409C42.5951 71.3409 36.2867 67.7156 32.5615 62.2017" stroke="black" stroke-width="1.96138" stroke-linecap="round" stroke-linejoin="round"/>
<path d="M65.7456 37.4263C68.7027 41.0094 70.4791 45.6031 70.4791 50.6118C70.4791 53.8594 69.7322 56.9327 68.4009 59.6691" stroke="black" stroke-width="1.96138" stroke-linecap="round" stroke-linejoin="round"/>
<path d="M30.5825 42.7053C33.6903 35.1791 41.1017 29.8828 49.7502 29.8828" stroke="black" stroke-width="1.96138" stroke-linecap="round" stroke-linejoin="round"/>
<path d="M45.8697 47.3705C44.9146 45.2207 42.3974 44.2522 40.2477 45.2073C39.2836 45.6356 38.5128 46.4064 38.0845 47.3705" stroke="black" stroke-width="1.96138" stroke-miterlimit="10" stroke-linecap="round"/>
<path d="M61.4161 47.3705C60.4609 45.2207 57.9438 44.2522 55.7941 45.2073C54.83 45.6356 54.0592 46.4064 53.6309 47.3705" stroke="black" stroke-width="1.96138" stroke-miterlimit="10" stroke-linecap="round"/>
</svg>
