<svg width="34" height="29" viewBox="0 0 34 29" fill="none" xmlns="http://www.w3.org/2000/svg">
<path d="M16.6689 28.3325C16.4496 28.3338 16.2321 28.2918 16.0291 28.2088C15.826 28.1259 15.6413 28.0037 15.4856 27.8492L2.53556 14.8825C0.911164 13.2412 0 11.0252 0 8.71588C0 6.4066 0.911164 4.19059 2.53556 2.54921C4.17266 0.916732 6.39028 0 8.70223 0C11.0142 0 13.2318 0.916732 14.8689 2.54921L16.6689 4.34921L18.4689 2.54921C20.106 0.916732 22.3236 0 24.6356 0C26.9475 0 29.1651 0.916732 30.8022 2.54921C32.4266 4.19059 33.3378 6.4066 33.3378 8.71588C33.3378 11.0252 32.4266 13.2412 30.8022 14.8825L17.8522 27.8492C17.6965 28.0037 17.5118 28.1259 17.3087 28.2088C17.1057 28.2918 16.8882 28.3338 16.6689 28.3325Z" fill="black"/>
</svg>
