<svg width="32" height="28" viewBox="0 0 32 28" fill="none" xmlns="http://www.w3.org/2000/svg">
<path d="M15.9995 27.5963C15.9037 27.5963 15.8068 27.5598 15.7339 27.4869L2.43414 14.1872C0.864499 12.6175 0 10.5354 0 8.32419C0 6.09628 0.864499 4.00482 2.43414 2.43414C4.00273 0.865541 6.08795 0.00208313 8.30752 0H8.30961C10.5302 0 12.6175 0.864499 14.1872 2.43414L15.9995 4.24646L17.8118 2.43414C19.3814 0.864499 21.4687 0 23.6883 0H23.6966C25.9131 0.00208313 27.9973 0.866582 29.5659 2.43414C31.1355 4.00482 32 6.09107 32 8.31065C32 10.5302 31.1355 12.6165 29.5659 14.1872L16.2651 27.4869C16.1911 27.5598 16.0953 27.5963 15.9995 27.5963ZM8.30961 0.750968C8.30961 0.750968 8.30856 0.750968 8.30752 0.750968C6.28897 0.75201 4.39228 1.53839 2.96534 2.96534C1.53735 4.39332 0.750968 6.29626 0.750968 8.32419C0.750968 10.3354 1.53735 12.229 2.96534 13.656L15.9995 26.6901L29.0336 13.656C30.4616 12.228 31.248 10.3302 31.248 8.31065C31.248 6.29105 30.4616 4.39332 29.0336 2.96534C27.6067 1.53943 25.711 0.753051 23.6956 0.750968C23.6925 0.750968 23.6894 0.750968 23.6873 0.750968C21.6687 0.750968 19.7699 1.53631 18.342 2.96534L16.264 5.04326C16.1172 5.19012 15.8797 5.19012 15.7328 5.04326L13.6549 2.96534C12.229 1.53735 10.3292 0.750968 8.30961 0.750968Z" fill="black"/>
</svg>
