<svg width="20" height="20" viewBox="0 0 20 20" fill="none" xmlns="http://www.w3.org/2000/svg">
<path d="M14.3284 1H5.91538C3.20071 1 1 3.20071 1 5.91538V14.3284C1 17.043 3.20071 19.2437 5.91538 19.2437H14.3284C17.043 19.2437 19.2437 17.043 19.2437 14.3284V5.91538C19.2438 3.20071 17.0431 1 14.3284 1Z" stroke="black" stroke-width="0.780102" stroke-miterlimit="10"/>
<path d="M10.1219 14.5256C12.554 14.5256 14.5256 12.554 14.5256 10.1219C14.5256 7.68985 12.554 5.71826 10.1219 5.71826C7.68985 5.71826 5.71826 7.68985 5.71826 10.1219C5.71826 12.554 7.68985 14.5256 10.1219 14.5256Z" stroke="black" stroke-width="0.780102" stroke-miterlimit="10"/>
<path d="M15.469 5.71836C15.9902 5.71836 16.4127 5.29587 16.4127 4.7747C16.4127 4.25354 15.9902 3.83105 15.469 3.83105C14.9479 3.83105 14.5254 4.25354 14.5254 4.7747C14.5254 5.29587 14.9479 5.71836 15.469 5.71836Z" fill="black"/>
</svg>
