<svg width="37" height="37" viewBox="0 0 37 37" fill="none" xmlns="http://www.w3.org/2000/svg">
<path d="M35.9565 0.264683L31.4765 0C31.3129 0 31.1901 0.0814409 31.1083 0.203602C31.0469 0.346124 31.0674 0.509005 31.1697 0.631166L32.7039 2.36179C32.7857 2.44323 32.8267 2.50431 32.6835 2.62647C31.3947 3.80736 30.3514 5.13078 29.2058 6.39311C27.7739 7.96085 26.5055 9.73218 25.1145 11.3203C23.9689 12.6233 22.9052 13.9671 21.8209 15.3109L21.4527 15.7588C20.6754 16.7157 19.9594 17.5505 19.1616 18.4464C18.1183 19.6273 16.9522 20.2788 15.9089 20.7674C13.5155 21.8669 10.672 22.0094 8.33995 21.1339C7.68534 20.8896 7.15346 20.6045 6.70341 20.2991C6.19199 19.953 5.74195 19.5458 5.35327 19.1182C4.57592 18.202 4.00313 17.1229 3.75765 15.9624C3.63491 15.4127 3.55308 14.8222 3.53262 14.2114C3.53262 13.621 3.59399 13.0305 3.71673 12.4605C3.83947 11.9107 4.02359 11.361 4.26907 10.8316C5.5783 8.14409 8.15584 6.61707 10.8357 6.94283C13.045 7.20752 15.2339 8.55129 16.5636 10.4448L17.791 12.0125C17.9137 12.1754 18.1183 12.2569 18.3228 12.2569C18.5274 12.2569 18.7115 12.1347 18.8138 11.9718L19.8367 10.4448C20.4504 9.4675 21.2686 8.53093 22.2096 7.92013C23.2938 7.20752 24.4599 6.77995 25.4827 6.69851C25.9328 6.65779 26.4033 6.69851 26.9965 6.82067C27.242 6.86139 27.4875 6.77995 27.6511 6.59671C28.1216 6.06735 29.3286 4.82537 29.8809 4.23493C29.9627 4.15348 30.0036 4.01096 29.9832 3.8888C29.9627 3.76664 29.8809 3.66484 29.7582 3.60376C27.3852 2.44323 24.5621 2.58575 22.1482 3.52232C22.1278 3.52232 22.1278 3.52232 22.1073 3.54268C20.7981 4.05168 19.5912 4.82537 18.507 5.82302C18.3433 5.9859 18.0774 5.9859 17.9137 5.82302C16.1135 4.11276 13.7814 3.01331 11.3471 2.72827C10.3856 2.62647 9.50599 2.62647 8.66727 2.74863C7.78763 2.87079 6.86708 3.15583 5.94652 3.62412C5.23054 3.97024 4.55546 4.43853 3.75765 5.11041C3.10303 5.6805 2.50979 6.33203 1.97791 7.065C0.955075 8.49021 0.300457 10.1598 0.0958892 11.87C-0.00639444 12.7251 -0.0268487 13.5803 0.0345215 14.415C0.116348 15.2498 0.300454 16.0846 0.566392 16.899C1.07781 18.4871 1.99837 19.953 3.24623 21.1543C3.85993 21.7244 4.535 22.2334 5.27144 22.6609C5.94651 23.0478 6.70342 23.3532 7.5626 23.6179C8.60589 23.9233 9.71056 24.0658 10.8357 24.0658C11.3266 24.0658 11.8381 24.0454 12.3495 23.9843C13.9246 23.8215 15.4385 23.3735 16.8704 22.6406C18.4865 21.8262 19.7139 20.5638 20.4913 19.668C23.212 16.5325 25.6668 13.1731 28.3057 9.97651C30.0445 7.85904 31.8243 5.63978 33.7063 3.787C33.7677 3.72592 33.8086 3.6852 33.8904 3.6852C33.9518 3.6852 34.0132 3.74628 34.0541 3.787C34.5246 4.31637 34.9542 4.82537 35.4247 5.35474C35.527 5.4769 35.6906 5.51762 35.8338 5.45654C35.977 5.39546 36.0793 5.2733 36.0793 5.11041L36.3452 0.651527C36.3248 0.447925 36.1611 0.285043 35.9565 0.264683Z" fill="white"/>
<path d="M35.036 8.653C34.9746 8.53084 34.9132 8.42904 34.8518 8.30688C34.4632 7.53319 34.1359 6.92238 33.5017 6.2505C33.3994 6.14869 33.2562 6.06725 33.0926 6.08761C32.9494 6.08761 32.8062 6.14869 32.7039 6.27085C32.4379 6.5559 32.0697 7.00382 31.722 7.45175C31.3947 7.85895 31.0673 8.26616 30.8628 8.51048C30.6991 8.69372 30.6991 8.99912 30.8628 9.18237C30.9037 9.26381 31.231 9.79317 31.5788 10.4651C32.3152 11.8903 32.5812 13.6005 32.3152 15.2904C32.0697 16.9396 31.2924 18.487 30.1059 19.6882C29.9831 19.8104 29.799 19.9733 29.6354 20.1362L27.917 21.765L25.6463 23.8621C23.3756 25.9592 20.7367 28.4431 18.3637 31.151C18.2614 31.2528 18.1387 31.3343 17.975 31.3343C17.8318 31.3343 17.6887 31.2936 17.5864 31.1918C16.6658 30.3366 15.7043 29.4815 14.702 28.6875C13.004 27.3233 11.2857 26.1221 9.58778 25.0837C9.3423 24.9412 9.0559 24.9005 8.78996 25.0023C8.52403 25.1041 8.31946 25.3077 8.21718 25.5927C8.09444 25.9388 8.23763 26.346 8.54448 26.5904C10.0378 27.7509 11.5312 29.0743 12.9836 30.5606C14.4156 32.0265 15.7248 33.5332 16.8499 35.0195L17.4432 35.8135C17.5864 35.9968 17.7909 36.0986 17.9955 36.1189C18.016 36.1189 18.016 36.1189 18.0364 36.1189C18.241 36.1189 18.4455 36.0375 18.5887 35.8746L19.3456 35.0398C21.9641 32.108 24.8894 29.4815 28.142 26.5904L30.4741 24.5136L31.6401 23.4549L32.3152 22.8441C32.4789 22.7016 32.6425 22.5387 32.8266 22.3554C34.5859 20.6248 35.7724 18.3037 36.1406 15.8809C36.5702 13.4173 36.1611 10.8519 35.036 8.653Z" fill="white"/>
</svg>
