<svg width="220" height="36" viewBox="0 0 220 36" fill="none" xmlns="http://www.w3.org/2000/svg">
<path d="M178.986 23.2125C178.986 26.3988 176.849 29.557 172.009 29.557C167.013 29.557 163.319 27.0615 163.319 24.7211C163.319 23.5085 164.296 22.5216 165.499 22.5216C166.702 22.5216 167.678 23.5085 167.678 24.7211C167.678 26.8782 168.853 29.0635 172.023 29.0635C175.137 29.0635 176.297 27.1461 176.297 25.1581C176.297 18.6726 163.348 19.7018 163.348 12.596C163.348 9.45192 166.051 6.58984 170.155 6.58984C173.169 6.58984 177.953 7.71776 177.953 11.0592C177.953 12.2717 176.976 13.2586 175.773 13.2586C174.571 13.2586 173.594 12.2717 173.594 11.0592C173.594 8.71878 172.476 7.06921 170.141 7.06921C167.636 7.06921 166.051 8.53549 166.051 10.5798C166.037 16.4591 178.986 15.1479 178.986 23.2125Z" fill="#212121"/>
<path d="M201.375 28.852C201.375 28.9507 201.29 29.0353 201.191 29.0353H198.898C197.059 29.0353 195.502 27.7664 195.091 26.0463C193.407 28.5278 190.888 29.557 188.397 29.557C185.029 29.557 181.93 27.7664 181.93 23.5931C181.93 16.4309 190.931 12.7793 194.936 11.7078C194.78 8.64829 194.129 7.08331 192.247 7.08331C190.308 7.08331 186.926 9.57881 185.199 12.8921C185.142 13.0049 184.972 13.0189 184.902 12.9062L183.501 10.9041C183.444 10.8195 183.458 10.7208 183.543 10.6644C186.897 8.23942 190.421 6.58984 192.7 6.58984C196.068 6.58984 199.167 8.63419 199.167 13.5124V23.0715C199.167 28.0766 199.946 28.6265 201.205 28.6687C201.304 28.6828 201.375 28.7533 201.375 28.852ZM194.992 25.3978C194.992 25.2991 194.978 25.2145 194.978 25.1158C194.978 25.1158 194.978 12.5678 194.95 12.1307C190.435 13.4278 186.105 17.305 186.105 23.579C186.105 26.709 187.831 28.4855 190.053 28.4855C191.468 28.5137 193.506 27.7946 194.992 25.3978Z" fill="#212121"/>
<path d="M220 23.2125C220 26.3988 217.863 29.557 213.023 29.557C208.027 29.557 204.333 27.0615 204.333 24.7211C204.333 23.5085 205.31 22.5216 206.512 22.5216C207.715 22.5216 208.692 23.5085 208.692 24.7211C208.692 26.8782 209.867 29.0635 213.037 29.0635C216.15 29.0635 217.311 27.1461 217.311 25.1581C217.311 18.6726 204.361 19.7018 204.361 12.596C204.361 9.45192 207.064 6.58984 211.169 6.58984C214.183 6.58984 218.967 7.71776 218.967 11.0592C218.967 12.2717 217.99 13.2586 216.787 13.2586C215.584 13.2586 214.608 12.2717 214.608 11.0592C214.608 8.71878 213.49 7.06921 211.154 7.06921C208.65 7.06921 207.064 8.53549 207.064 10.5798C207.036 16.4591 220 15.1479 220 23.2125Z" fill="#212121"/>
<path d="M0 15.2043C0 7.28067 5.43455 0.851562 12.1428 0.851562C16.8839 0.851562 18.6812 3.78414 18.6812 6.75901C18.6812 6.77311 18.6812 6.78721 18.6812 6.78721C18.6812 7.98561 17.7047 8.95844 16.5018 8.95844C15.2988 8.95844 14.3223 7.98561 14.3223 6.78721C14.3223 4.85565 15.3413 1.33093 12.1287 1.33093C6.66581 1.33093 4.17498 7.97152 4.17498 14.0904C4.17498 21.7462 8.12351 27.7241 12.3409 28.1753C15.5394 28.5277 18.1718 26.7936 19.587 23.9315L20.1673 24.2417C18.3699 27.5831 15.5677 29.5288 12.1428 29.5288C5.43455 29.557 0 23.142 0 15.2043Z" fill="#212121"/>
<path d="M41.0423 28.6828C41.1413 28.6828 41.2121 28.7674 41.2121 28.8661C41.2121 28.9648 41.1272 29.0494 41.0281 29.0494H38.7354C36.8956 29.0494 35.3388 27.7805 34.9284 26.0604C33.2442 28.5419 30.7251 29.5711 28.2343 29.5711C24.866 29.5711 21.7666 27.7805 21.7666 23.6072C21.7666 16.445 30.7676 12.7934 34.7727 11.7218C34.617 8.66238 33.966 7.0974 32.0837 7.0974C30.1449 7.0974 26.7624 9.59291 25.0358 12.9062C24.9792 13.0189 24.8094 13.033 24.7386 12.9203L23.3517 10.9041C23.2951 10.8195 23.3092 10.7208 23.3941 10.6644C26.7483 8.23942 30.2722 6.58984 32.5508 6.58984C35.9191 6.58984 39.0185 8.63419 39.0185 13.5124V23.0715C39.0043 28.0766 39.7827 28.6405 41.0423 28.6828ZM34.8293 25.3978C34.8293 25.2991 34.8152 25.2145 34.8152 25.1158C34.8152 25.1158 34.8152 12.5678 34.7869 12.1307C30.2722 13.4278 25.9416 17.305 25.9416 23.579C25.9416 26.709 27.6682 28.4855 29.8901 28.4855C31.3054 28.5137 33.3433 27.7946 34.8293 25.3978Z" fill="#212121"/>
<path d="M64.0114 18.0805C64.0114 24.425 59.4402 29.557 54.0764 29.557C52.2224 29.557 50.6657 28.9507 49.5193 27.7382C49.4061 27.6254 49.2221 27.6959 49.2221 27.8651V30.0645C49.2221 35.0697 50.0005 35.6195 51.2601 35.6618C51.3591 35.6618 51.4299 35.7464 51.4299 35.831C51.4299 35.9297 51.345 36.0002 51.2601 36.0002H43.0092C42.9101 36.0002 42.8394 35.9156 42.8394 35.831C42.8394 35.7323 42.9101 35.6618 43.0092 35.6618C44.2688 35.6195 45.0471 35.0697 45.0471 30.0645V12.5819C45.0471 8.56369 44.3395 8.60599 43.0516 8.85977C42.9384 8.87387 42.8394 8.80337 42.8394 8.69058C42.8394 8.60599 42.896 8.53549 42.9809 8.5214L49.024 7.1679C49.1372 7.1397 49.2363 7.22429 49.2363 7.33709V9.88899C51.1468 7.66136 53.1706 6.58984 55.3077 6.58984C60.6431 6.58984 64.0114 11.7359 64.0114 18.0805ZM60.8271 18.0805C60.8271 11.0592 58.1665 7.60497 55.1378 7.60497C53.3971 7.60497 51.444 9.18404 50.2552 10.5516C50.2269 10.5798 50.2128 10.6221 50.2128 10.6644V18.4329C50.2552 24.3968 51.0619 29.0776 55.0671 29.0776C59.1571 29.0776 60.8271 24.1994 60.8271 18.0805Z" fill="#212121"/>
<path d="M80.7257 9.70577C80.7257 10.9606 79.6784 11.877 78.5462 11.877C77.3432 11.877 76.3667 10.9042 76.3667 9.70577C76.3667 8.54966 76.0271 8.05619 75.4893 8.05619C74.7392 8.05619 73.2956 9.07131 72.0644 10.7491C72.0361 10.7773 72.0361 10.8196 72.0361 10.8478V23.1279C72.0361 28.1471 72.8145 28.697 74.074 28.7393C74.1731 28.7393 74.2438 28.8239 74.2438 28.9085C74.2438 29.0072 74.1589 29.0777 74.074 29.0777H65.809C65.7099 29.0777 65.6391 28.9931 65.6391 28.9085C65.6391 28.8098 65.7099 28.7393 65.809 28.7393C67.0685 28.697 67.8469 28.1471 67.8469 23.1279V12.6101C67.8469 8.57785 67.1393 8.63425 65.8373 8.87393C65.7241 8.88803 65.625 8.81753 65.625 8.70474C65.625 8.62015 65.6816 8.54965 65.7665 8.53556L71.8238 7.18206C71.937 7.15386 72.0361 7.23846 72.0361 7.35125V10.1992C72.8569 9.12771 74.7958 6.604 77.4989 6.604C78.8717 6.6181 80.7257 7.49224 80.7257 9.70577Z" fill="#212121"/>
<path d="M90.9436 28.8519C90.9436 28.9506 90.8587 29.0352 90.7737 29.0352H82.5228C82.4238 29.0352 82.353 28.9506 82.353 28.866C82.353 28.7673 82.4238 28.6968 82.5228 28.6968C83.7824 28.6545 84.5608 28.1046 84.5608 23.0995V12.5817C84.5608 8.56354 83.8532 8.60584 82.5653 8.85962C82.4521 8.87371 82.353 8.80322 82.353 8.69043C82.353 8.60583 82.4096 8.53534 82.4946 8.52124L88.5376 7.16775C88.6509 7.13955 88.7499 7.22414 88.7499 7.33693V23.0713C88.7499 28.0764 89.5283 28.6263 90.7879 28.6686C90.8728 28.6827 90.9436 28.7532 90.9436 28.8519ZM84.391 3.67121C84.0938 2.43051 84.8722 1.2039 86.1034 0.907827C87.3347 0.61175 88.5801 1.38719 88.8773 2.6138C89.1745 3.8545 88.3961 5.08111 87.1649 5.37718C85.9194 5.67326 84.6882 4.91192 84.391 3.67121Z" fill="#212121"/>
<path d="M110.715 24.9609C108.932 27.5833 106.313 29.6276 102.719 29.6276C97.3407 29.6276 92.5713 24.4815 92.5713 18.1229C92.5713 10.4813 98.204 6.61816 102.719 6.61816C105.945 6.61816 109.087 8.14085 109.087 11.0875C109.087 11.1016 109.087 11.1157 109.087 11.1298C109.087 12.3141 108.125 13.287 106.936 13.3011C105.719 13.3151 104.728 12.3141 104.728 11.1016C104.728 8.14085 104.233 7.09753 102.719 7.09753C99.2796 7.09753 96.7887 12.2154 96.7887 17.1783C96.7887 23.847 99.8174 28.8381 103.907 28.8381C105.903 28.8381 108.281 27.4987 110.234 24.6366C110.276 24.5661 110.375 24.552 110.446 24.5943L110.672 24.7494C110.743 24.8058 110.757 24.9045 110.715 24.9609Z" fill="#212121"/>
<path d="M133.529 28.8519C133.529 28.9505 133.444 29.0351 133.359 29.0351H125.108C125.009 29.0351 124.938 28.9505 124.938 28.8659C124.938 28.7673 125.009 28.6968 125.108 28.6968C126.367 28.6545 127.146 28.1046 127.146 23.0995V13.5263C127.146 9.28255 125.49 7.64708 123.268 7.64708C121.98 7.64708 120.14 8.80319 118.739 10.6642V23.0713C118.739 28.0764 119.518 28.6263 120.777 28.6686C120.876 28.6686 120.947 28.7532 120.947 28.8378C120.947 28.9364 120.862 29.0069 120.777 29.0069H112.526C112.427 29.0069 112.356 28.9223 112.356 28.8378C112.356 28.7391 112.427 28.6686 112.526 28.6686C113.786 28.6263 114.564 28.0764 114.564 23.0713V5.41945C114.564 1.40126 113.857 1.44355 112.569 1.69734C112.456 1.71143 112.356 1.64094 112.356 1.52815C112.356 1.44355 112.413 1.37306 112.498 1.35896L118.527 0.00546516C118.64 -0.0227327 118.739 0.0618608 118.739 0.174652V9.88881C120.466 7.78807 122.872 6.58966 124.867 6.58966C128.235 6.58966 131.335 8.634 131.335 13.5122V23.0713C131.335 28.0764 132.113 28.6263 133.373 28.6686C133.458 28.6827 133.529 28.7532 133.529 28.8519Z" fill="#212121"/>
<path d="M159.725 4.84149L156.625 4.6582C156.512 4.6582 156.427 4.7146 156.371 4.79919C156.328 4.89788 156.342 5.01068 156.413 5.09527L157.474 6.29368C157.531 6.35007 157.559 6.39237 157.46 6.47696C156.569 7.2947 155.847 8.21113 155.054 9.08526C154.064 10.1709 153.186 11.3975 152.224 12.4972C151.431 13.3995 150.695 14.3301 149.945 15.2606L149.691 15.5708C149.153 16.2334 148.658 16.8115 148.106 17.4318C147.384 18.2496 146.577 18.7007 145.855 19.0391C144.199 19.8004 142.232 19.8991 140.619 19.2929C140.166 19.1237 139.798 18.9263 139.487 18.7148C139.133 18.4751 138.822 18.1932 138.553 17.8971C138.015 17.2626 137.619 16.5154 137.449 15.7118C137.364 15.3311 137.307 14.9222 137.293 14.4992C137.293 14.0904 137.336 13.6815 137.42 13.2867C137.505 12.9061 137.633 12.5254 137.803 12.1588C138.708 10.2978 140.492 9.24035 142.346 9.46593C143.874 9.64922 145.388 10.5797 146.308 11.8909L147.157 12.9766C147.242 13.0894 147.384 13.1458 147.525 13.1458C147.667 13.1458 147.794 13.0612 147.865 12.9484L148.573 11.8909C148.997 11.2142 149.563 10.5656 150.214 10.1427C150.964 9.64922 151.771 9.35314 152.479 9.29675C152.79 9.26855 153.116 9.29675 153.526 9.38134C153.696 9.40954 153.866 9.35314 153.979 9.22625C154.304 8.85968 155.139 7.99965 155.521 7.59078C155.578 7.53438 155.606 7.43569 155.592 7.3511C155.578 7.2665 155.521 7.19601 155.437 7.15371C153.795 6.35007 151.842 6.44877 150.172 7.09732C150.158 7.09732 150.158 7.09732 150.144 7.11141C149.238 7.46389 148.403 7.99965 147.653 8.69049C147.539 8.80328 147.355 8.80328 147.242 8.69049C145.997 7.50618 144.383 6.74484 142.699 6.54746C142.034 6.47696 141.426 6.47696 140.845 6.56156C140.237 6.64615 139.6 6.84354 138.963 7.16781C138.468 7.40749 138.001 7.73177 137.449 8.19703C136.996 8.5918 136.585 9.04297 136.217 9.55053C135.51 10.5375 135.057 11.6936 134.915 12.8779C134.845 13.47 134.831 14.0622 134.873 14.6402C134.93 15.2183 135.057 15.7963 135.241 16.3603C135.595 17.46 136.232 18.4751 137.095 19.307C137.52 19.7017 137.987 20.0542 138.496 20.3503C138.963 20.6182 139.487 20.8297 140.081 21.0129C140.803 21.2244 141.567 21.3231 142.346 21.3231C142.685 21.3231 143.039 21.309 143.393 21.2667C144.483 21.1539 145.53 20.8438 146.52 20.3362C147.639 19.7722 148.488 18.8981 149.025 18.2778C150.908 16.1065 152.606 13.7802 154.432 11.5667C155.635 10.1004 156.866 8.5636 158.168 7.2806C158.21 7.2383 158.239 7.21011 158.295 7.21011C158.338 7.21011 158.38 7.2524 158.409 7.2806C158.734 7.64717 159.031 7.99965 159.357 8.36622C159.428 8.45081 159.541 8.47901 159.64 8.43671C159.739 8.39442 159.81 8.30982 159.81 8.19703L159.994 5.10937C159.979 4.96838 159.866 4.85559 159.725 4.84149Z" fill="#212121"/>
<path d="M159.088 10.6502C159.046 10.5656 159.003 10.4951 158.961 10.4105C158.692 9.87478 158.465 9.45181 158.027 8.98655C157.956 8.91605 157.857 8.85966 157.744 8.87376C157.645 8.87376 157.545 8.91605 157.475 9.00065C157.291 9.19803 157.036 9.50821 156.795 9.81838C156.569 10.1004 156.343 10.3823 156.201 10.5515C156.088 10.6784 156.088 10.8899 156.201 11.0168C156.229 11.0732 156.456 11.4398 156.696 11.905C157.206 12.8919 157.39 14.0763 157.206 15.2465C157.036 16.3885 156.498 17.46 155.677 18.2918C155.592 18.3764 155.465 18.4892 155.352 18.602L154.163 19.7299L152.592 21.1821C151.021 22.6343 149.196 24.3544 147.554 26.2295C147.483 26.3 147.398 26.3564 147.285 26.3564C147.186 26.3564 147.087 26.3282 147.016 26.2577C146.379 25.6656 145.714 25.0734 145.021 24.5236C143.846 23.5789 142.657 22.7471 141.482 22.028C141.313 21.9294 141.114 21.9012 140.931 21.9717C140.747 22.0421 140.605 22.1831 140.534 22.3805C140.449 22.6202 140.548 22.9022 140.761 23.0714C141.794 23.875 142.827 24.7914 143.832 25.8207C144.822 26.8358 145.728 27.8791 146.507 28.9083L146.917 29.4582C147.016 29.5851 147.158 29.6556 147.299 29.6697C147.313 29.6697 147.313 29.6697 147.327 29.6697C147.469 29.6697 147.61 29.6133 147.71 29.5005L148.233 28.9224C150.045 26.8922 152.068 25.0734 154.319 23.0714L155.932 21.6333L156.739 20.9001L157.206 20.4772C157.319 20.3785 157.432 20.2657 157.56 20.1388C158.777 18.9404 159.598 17.3331 159.852 15.6553C160.15 13.9494 159.866 12.1729 159.088 10.6502Z" fill="#1D1D1B"/>
</svg>
