<svg width="19" height="19" viewBox="0 0 19 19" fill="none" xmlns="http://www.w3.org/2000/svg">
<path d="M7.46429 0C11.5867 0 14.9286 3.34187 14.9286 7.46429C14.9286 9.28121 14.2794 10.9465 13.2003 12.2409L18.8013 17.8416C19.0662 18.1066 19.0662 18.5363 18.8013 18.8013C18.5657 19.0368 18.2 19.063 17.9356 18.8798L17.8416 18.8013L12.2409 13.2003C10.9465 14.2794 9.28121 14.9286 7.46429 14.9286C3.34187 14.9286 0 11.5867 0 7.46429C0 3.34187 3.34187 0 7.46429 0ZM7.46429 1.35714C4.0914 1.35714 1.35714 4.0914 1.35714 7.46429C1.35714 10.8372 4.0914 13.5714 7.46429 13.5714C10.8372 13.5714 13.5714 10.8372 13.5714 7.46429C13.5714 4.0914 10.8372 1.35714 7.46429 1.35714Z" fill="black"/>
</svg>
