<svg width="99" height="60" viewBox="0 0 99 60" fill="none" xmlns="http://www.w3.org/2000/svg">
<rect width="99" height="60" rx="8" fill="white"/>
<path d="M59.3996 41.9178H39.5996V7.39722H59.3996V41.9178Z" fill="#6C6BBD"/>
<path d="M41.1262 25.0686C41.1262 18.1211 44.4008 11.9326 49.5004 7.94458C45.7713 5.02832 41.0644 3.2876 35.9498 3.2876C23.841 3.2876 14.0254 13.039 14.0254 25.0686C14.0254 37.0978 23.841 46.8492 35.9498 46.8492C41.0647 46.8492 45.7713 45.1085 49.5004 42.1923C44.4008 38.2043 41.1262 32.0158 41.1262 25.0686Z" fill="#D32011"/>
<path d="M84.975 25.0686C84.975 37.0978 75.1597 46.8492 63.0514 46.8492C57.9368 46.8492 53.2303 45.1085 49.5 42.1923C54.6008 38.2043 57.8752 32.0158 57.8752 25.0686C57.8752 18.1211 54.6008 11.9326 49.5 7.94458C53.2303 5.02832 57.937 3.2876 63.0514 3.2876C75.1597 3.2876 84.975 13.039 84.975 25.0686Z" fill="#0099DF"/>
<path d="M65.625 52.3293C65.8806 52.3293 66.2482 52.3705 66.5291 52.4636L66.1379 53.4731C65.8695 53.38 65.6011 53.3493 65.344 53.3493C64.5138 53.3493 64.0987 53.802 64.0987 54.6158V57.3775H62.8283V52.4531H64.0862V53.0509C64.416 52.6181 64.8925 52.3293 65.625 52.3293ZM60.9316 53.4319H58.8559V55.6569C58.8559 56.1511 59.0629 56.4812 59.6989 56.4812C60.0288 56.4812 60.4436 56.3881 60.8212 56.2029L61.1872 57.1194C60.7848 57.3562 60.1502 57.5015 59.6009 57.5015C58.0984 57.5015 57.5744 56.8209 57.5744 55.6771V53.4319H56.3893V52.4531H57.5744V50.959H58.8559V52.4531H60.9316V53.4319ZM44.6781 54.4826C44.8137 53.7716 45.3256 53.287 46.2297 53.287C47.0472 53.287 47.5726 53.7195 47.7069 54.4826H44.6781ZM49.0264 54.9154C49.0137 53.3798 47.89 52.3293 46.2533 52.3293C44.5442 52.3293 43.3477 53.38 43.3477 54.9152C43.3477 56.4801 44.5931 57.5001 46.34 57.5001C47.2192 57.5001 48.0242 57.3149 48.7327 56.8104L48.1095 56.0168C47.6218 56.3469 46.9983 56.5321 46.4128 56.5321C45.5951 56.5321 44.8501 56.2126 44.667 55.3271H49.0012C49.0137 55.1925 49.0264 55.0591 49.0264 54.9154ZM54.606 53.7101C54.2522 53.5238 53.5323 53.2867 52.7873 53.2867C52.0913 53.2867 51.6762 53.5038 51.6762 53.8646C51.6762 54.1936 52.1152 54.2866 52.6645 54.348L53.2628 54.42C54.5332 54.5757 55.3017 55.0286 55.3017 55.8942C55.3017 56.8315 54.3248 57.5013 52.6406 57.5013C51.6875 57.5013 50.8084 57.295 50.1121 56.8622L50.7106 56.0273C51.1382 56.3056 51.7742 56.5426 52.6531 56.5426C53.5198 56.5426 53.9838 56.327 53.9838 55.9448C53.9838 55.6677 53.654 55.512 52.9579 55.4307L52.3597 55.3587C51.0529 55.2031 50.3443 54.7089 50.3443 53.9059C50.3443 52.9271 51.2974 52.3293 52.7748 52.3293C53.7029 52.3293 54.5457 52.5051 55.155 52.8446L54.606 53.7101ZM70.2664 53.3468C70.0052 53.3468 69.7635 53.3859 69.5384 53.4626C69.3206 53.537 69.1228 53.6476 68.9568 53.788C68.79 53.9317 68.6588 54.1021 68.5712 54.2892C68.4775 54.4838 68.4314 54.6983 68.4314 54.9318C68.4314 55.1665 68.4775 55.3798 68.5712 55.5744C68.6648 55.769 68.7935 55.9366 68.9568 56.0756C69.1228 56.216 69.3206 56.3267 69.5384 56.401C69.7635 56.4789 70.0052 56.5166 70.2664 56.5166C70.5276 56.5166 70.771 56.4791 70.9944 56.401C71.2133 56.327 71.412 56.2163 71.5788 56.0756C71.7452 55.9366 71.8739 55.769 71.9689 55.5744C72.0625 55.3798 72.1087 55.1665 72.1087 54.9318C72.1087 54.6983 72.0625 54.4838 71.9689 54.2892C71.8739 54.0946 71.7452 53.9272 71.5788 53.788C71.4121 53.6473 71.2134 53.5367 70.9947 53.4626C70.7632 53.3845 70.516 53.3452 70.2667 53.347L70.2664 53.3468ZM70.2664 52.3293C70.7193 52.3293 71.1386 52.3954 71.5243 52.5286C71.8973 52.6537 72.2374 52.8397 72.5252 53.0757C72.8085 53.31 73.0333 53.5898 73.1862 53.8986C73.3454 54.2161 73.4252 54.5605 73.4252 54.9318C73.4252 55.3032 73.3454 55.6476 73.1862 55.9648C73.0332 56.274 72.8084 56.5543 72.5249 56.789C72.2443 57.0214 71.91 57.2031 71.5246 57.3362C71.1384 57.4684 70.7193 57.5343 70.2664 57.5343C69.8135 57.5343 69.3942 57.4684 69.0085 57.3362C68.6229 57.2031 68.2916 57.0214 68.0121 56.789C67.7304 56.5536 67.5066 56.2734 67.3536 55.9648C67.1944 55.6476 67.1146 55.3032 67.1146 54.9318C67.1146 54.5605 67.1944 54.2161 67.3536 53.8989C67.5066 53.5905 67.7304 53.3108 68.0121 53.0757C68.298 52.8395 68.6367 52.6535 69.0085 52.5286C69.3942 52.3954 69.8135 52.3293 70.2664 52.3293ZM37.2597 54.9152C37.2597 54.0498 37.9321 53.3388 39.0305 53.3388C40.0803 53.3388 40.7889 54.0191 40.7889 54.9154C40.7889 55.8114 40.0803 56.4908 39.0305 56.4908C37.9321 56.4908 37.2597 55.7807 37.2597 54.9152ZM41.9853 54.9152V52.4531H40.7161V53.0509C40.3123 52.6076 39.703 52.3293 38.8727 52.3293C37.2361 52.3293 35.9543 53.4105 35.9543 54.9152C35.9543 56.4189 37.2361 57.5013 38.8727 57.5013C39.703 57.5013 40.312 57.223 40.7161 56.7797V57.3775H41.9853V54.9152ZM34.8303 57.3777V54.2871C34.8303 53.1231 33.9512 52.3401 32.5354 52.3295C31.7905 52.319 31.0202 52.5147 30.4837 53.2056C30.0811 52.6596 29.4453 52.3295 28.5536 52.3295C27.9315 52.3295 27.3207 52.484 26.8442 53.0605V52.4533H25.5752V57.3777H26.8567V54.6479C26.8567 53.7929 27.4186 53.339 28.2849 53.339C29.128 53.339 29.5556 53.8023 29.5556 54.6374V57.3777H30.8374V54.6477C30.8374 53.7927 31.4243 53.3388 32.2656 53.3388C33.1337 53.3388 33.5488 53.802 33.5488 54.6371V57.3777H34.8303Z" fill="#110F0D"/>
</svg>
