<svg width="99" height="60" viewBox="0 0 99 60" fill="none" xmlns="http://www.w3.org/2000/svg">
<rect width="99" height="60" rx="8" fill="#FFFCFC"/>
<path d="M28.4233 57.2648V53.6744C28.4233 52.2978 27.5812 51.4004 26.1379 51.4004C25.4164 51.4004 24.6346 51.6398 24.0933 52.4177C23.6726 51.7594 23.0713 51.4004 22.1693 51.4004C21.5677 51.4004 20.9667 51.5798 20.4855 52.2381V51.5201H19.2227V57.2648H20.4855V54.0931C20.4855 53.0761 21.0267 52.5971 21.8688 52.5971C22.7103 52.5971 23.1316 53.1358 23.1316 54.0931V57.2648H24.3944V54.0931C24.3944 53.0761 24.9954 52.5971 25.7772 52.5971C26.6192 52.5971 27.04 53.1358 27.04 54.0931V57.2648H28.4233ZM47.1245 51.5201H45.0802V49.7847H43.8174V51.5201H42.6748V52.6568H43.8171V55.2901C43.8171 56.6067 44.3584 57.3844 45.8017 57.3844C46.343 57.3844 46.9439 57.2051 47.3652 56.9657L47.0042 55.8884C46.6434 56.1278 46.2227 56.1877 45.9219 56.1877C45.3207 56.1877 45.0802 55.8287 45.0802 55.2301V52.6568H47.1245V51.5201ZM57.8284 51.4001C57.1069 51.4001 56.6259 51.7594 56.3251 52.2381V51.5201H55.0623V57.2648H56.3251V54.0334C56.3251 53.0761 56.7458 52.5374 57.5276 52.5374C57.7681 52.5374 58.0689 52.5974 58.3094 52.6571L58.6702 51.4604C58.4297 51.4004 58.0689 51.4004 57.8284 51.4004V51.4001ZM41.6525 51.9988C41.051 51.5798 40.2092 51.4004 39.3072 51.4004C37.8641 51.4004 36.9021 52.1184 36.9021 53.2554C36.9021 54.2131 37.6236 54.7514 38.8864 54.9311L39.4877 54.9911C40.1492 55.1104 40.51 55.2901 40.51 55.5894C40.51 56.0081 40.029 56.3074 39.1869 56.3074C38.3451 56.3074 37.6836 56.0081 37.2626 55.7091L36.6613 56.6664C37.3228 57.1451 38.2249 57.3844 39.1267 57.3844C40.8105 57.3844 41.7728 56.6067 41.7728 55.5294C41.7728 54.5121 40.991 53.9735 39.7882 53.7941L39.1869 53.7341C38.6456 53.6741 38.2249 53.5547 38.2249 53.1957C38.2249 52.7768 38.6456 52.5374 39.3072 52.5374C40.029 52.5374 40.7505 52.8365 41.1112 53.0161L41.6525 51.9988ZM75.2071 51.4004C74.4853 51.4004 74.0043 51.7594 73.7035 52.2381V51.5201H72.4407V57.2648H73.7035V54.0334C73.7035 53.0761 74.1245 52.5374 74.906 52.5374C75.1468 52.5374 75.4476 52.5974 75.6881 52.6571L76.0488 51.4604C75.8083 51.4004 75.4476 51.4004 75.2071 51.4004ZM59.0912 54.3924C59.0912 56.1278 60.2937 57.3844 62.1581 57.3844C62.9998 57.3844 63.6011 57.2051 64.2024 56.7264L63.6011 55.7091C63.1201 56.0681 62.6391 56.2474 62.0978 56.2474C61.0755 56.2474 60.354 55.5294 60.354 54.3924C60.354 53.3154 61.0755 52.5971 62.0978 52.5374C62.6391 52.5374 63.1201 52.7168 63.6011 53.0761L64.2024 52.0587C63.6011 51.5798 62.9998 51.4004 62.1581 51.4004C60.2937 51.4004 59.0912 52.6571 59.0912 54.3924ZM70.7571 54.3924V51.5201H69.4943V52.2381C69.0733 51.6997 68.472 51.4004 67.6903 51.4004C66.0667 51.4004 64.8039 52.6571 64.8039 54.3924C64.8039 56.1278 66.0667 57.3844 67.6903 57.3844C68.532 57.3844 69.1336 57.0854 69.4943 56.5468V57.2648H70.7571V54.3924ZM66.1267 54.3924C66.1267 53.3751 66.7882 52.5374 67.8705 52.5374C68.8928 52.5374 69.6146 53.3154 69.6146 54.3924C69.6146 55.4098 68.8928 56.2474 67.8705 56.2474C66.7882 56.1875 66.1267 55.4098 66.1267 54.3924ZM51.0334 51.4004C49.3496 51.4004 48.1468 52.5971 48.1468 54.3924C48.1468 56.1877 49.3493 57.3844 51.0934 57.3844C51.9351 57.3844 52.7772 57.1451 53.4387 56.6067L52.8372 55.7091C52.3562 56.0681 51.7549 56.3074 51.1536 56.3074C50.3719 56.3074 49.5901 55.9484 49.4096 54.9308H53.6792V54.4524C53.7395 52.5971 52.6572 51.4004 51.0334 51.4004ZM51.0334 52.4774C51.8149 52.4774 52.3564 52.9564 52.4764 53.8541H49.4698C49.5901 53.0761 50.1313 52.4774 51.0334 52.4774ZM82.3628 54.3924V49.2461H81.1V52.2381C80.679 51.6997 80.0777 51.4004 79.296 51.4004C77.6724 51.4004 76.4096 52.6571 76.4096 54.3924C76.4096 56.1278 77.6724 57.3844 79.296 57.3844C80.138 57.3844 80.7393 57.0854 81.1 56.5468V57.2648H82.3628V54.3924ZM77.7327 54.3924C77.7327 53.3751 78.3939 52.5374 79.4765 52.5374C80.4988 52.5374 81.2203 53.3154 81.2203 54.3924C81.2203 55.4098 80.4988 56.2474 79.4765 56.2474C78.3939 56.1875 77.7327 55.4098 77.7327 54.3924ZM35.5188 54.3924V51.5201H34.256V52.2381C33.835 51.6997 33.2337 51.4004 32.4519 51.4004C30.8283 51.4004 29.5655 52.6571 29.5655 54.3924C29.5655 56.1278 30.8283 57.3844 32.4519 57.3844C33.294 57.3844 33.8952 57.0854 34.256 56.5468V57.2648H35.5188V54.3924ZM30.8283 54.3924C30.8283 53.3751 31.4899 52.5374 32.5722 52.5374C33.5944 52.5374 34.3162 53.3154 34.3162 54.3924C34.3162 55.4098 33.5944 56.2474 32.5722 56.2474C31.4899 56.1875 30.8283 55.4098 30.8283 54.3924Z" fill="black"/>
<path d="M41.2314 7.89526H60.1734V41.7656H41.2314V7.89526Z" fill="#FF5F00"/>
<path d="M42.4343 24.8306C42.4343 17.9489 45.6815 11.8449 50.6724 7.89529C47.0045 5.02294 42.3744 3.2876 37.3232 3.2876C25.3562 3.2876 15.6748 12.922 15.6748 24.8306C15.6748 36.7389 25.3562 46.3736 37.3229 46.3736C42.3741 46.3736 47.0042 44.6382 50.6724 41.7656C45.6815 37.8759 42.4343 31.7123 42.4343 24.8306Z" fill="#EB001B"/>
<path d="M85.73 24.8306C85.73 36.7389 76.0486 46.3736 64.0819 46.3736C59.0307 46.3736 54.4006 44.6382 50.7324 41.7656C55.7836 37.8162 58.9707 31.7123 58.9707 24.8306C58.9707 17.9489 55.7233 11.8449 50.7324 7.89529C54.4003 5.02294 59.0307 3.2876 64.0819 3.2876C76.0486 3.2876 85.73 12.9819 85.73 24.8306Z" fill="#F79E1B"/>
</svg>
