<svg width="99" height="60" viewBox="0 0 99 60" fill="none" xmlns="http://www.w3.org/2000/svg">
<rect width="99" height="60" rx="8" fill="white"/>
<path d="M41.2314 17.7583H60.1734V51.6286H41.2314V17.7583Z" fill="#FF5F00"/>
<path d="M41.6091 34.6936C41.6091 27.8119 44.8563 21.708 49.8472 17.7583C46.1793 14.886 41.5492 13.1506 36.498 13.1506C24.531 13.1506 14.8496 22.785 14.8496 34.6936C14.8496 46.602 24.531 56.2366 36.4977 56.2366C41.5489 56.2366 46.179 54.5012 49.8472 51.6286C44.8563 47.739 41.6091 41.5753 41.6091 34.6936Z" fill="#EB001B"/>
<path d="M84.9048 34.6936C84.9048 46.602 75.2234 56.2366 63.2567 56.2366C58.2055 56.2366 53.5754 54.5012 49.9072 51.6286C54.9584 47.6793 58.1455 41.5753 58.1455 34.6936C58.1455 27.8119 54.8982 21.708 49.9072 17.7583C53.5751 14.886 58.2055 13.1506 63.2567 13.1506C75.2234 13.1506 84.9048 22.845 84.9048 34.6936Z" fill="#F79E1B"/>
<path d="M33.7841 12H30.9588V3.27273H33.8736C34.7287 3.27273 35.4631 3.44744 36.0767 3.79688C36.6903 4.14347 37.1605 4.64205 37.4872 5.29261C37.8168 5.94034 37.9815 6.71733 37.9815 7.62358C37.9815 8.53267 37.8153 9.31392 37.483 9.96733C37.1534 10.6207 36.6761 11.1236 36.0511 11.4759C35.4261 11.8253 34.6705 12 33.7841 12ZM32.2756 10.8494H33.7116C34.3764 10.8494 34.929 10.7244 35.3693 10.4744C35.8097 10.2216 36.1392 9.85653 36.358 9.37926C36.5767 8.89915 36.6861 8.31392 36.6861 7.62358C36.6861 6.93892 36.5767 6.35795 36.358 5.88068C36.142 5.40341 35.8196 5.04119 35.3906 4.79403C34.9616 4.54687 34.429 4.4233 33.7926 4.4233H32.2756V10.8494ZM42.3377 12.1321C41.6928 12.1321 41.1374 11.9943 40.6715 11.7188C40.2085 11.4403 39.8505 11.0497 39.5977 10.5469C39.3477 10.0412 39.2227 9.44886 39.2227 8.76989C39.2227 8.09943 39.3477 7.50852 39.5977 6.99716C39.8505 6.4858 40.2028 6.08665 40.6545 5.79972C41.109 5.51278 41.6403 5.36932 42.2482 5.36932C42.6175 5.36932 42.9755 5.4304 43.3221 5.55256C43.6687 5.67472 43.9798 5.86648 44.2553 6.12784C44.5309 6.3892 44.7482 6.72869 44.9073 7.14631C45.0664 7.56108 45.146 8.06534 45.146 8.65909V9.1108H39.9428V8.15625H43.8974C43.8974 7.82102 43.8292 7.52415 43.6928 7.26562C43.5565 7.00426 43.3647 6.7983 43.1175 6.64773C42.8732 6.49716 42.5863 6.42188 42.2567 6.42188C41.8988 6.42188 41.5863 6.50994 41.3192 6.68608C41.055 6.85937 40.8505 7.08665 40.7056 7.3679C40.5636 7.64631 40.4925 7.94886 40.4925 8.27557V9.02131C40.4925 9.45881 40.5692 9.83097 40.7227 10.1378C40.8789 10.4446 41.0962 10.679 41.3746 10.8409C41.6531 11 41.9783 11.0795 42.3505 11.0795C42.592 11.0795 42.8121 11.0455 43.011 10.9773C43.2099 10.9062 43.3817 10.8011 43.5266 10.6619C43.6715 10.5227 43.7823 10.3509 43.859 10.1463L45.065 10.3636C44.9684 10.7187 44.7951 11.0298 44.5451 11.2969C44.2979 11.5611 43.9869 11.767 43.6119 11.9148C43.2397 12.0597 42.815 12.1321 42.3377 12.1321ZM41.6729 4.58097L42.6701 2.61648H44.0124L42.6914 4.58097H41.6729ZM46.6619 12V3.27273H47.9361V6.51562H48.0128C48.0866 6.37926 48.1932 6.22159 48.3324 6.04261C48.4716 5.86364 48.6648 5.70739 48.9119 5.57386C49.1591 5.4375 49.4858 5.36932 49.892 5.36932C50.4205 5.36932 50.892 5.50284 51.3068 5.76989C51.7216 6.03693 52.0469 6.42187 52.2827 6.92472C52.5213 7.42756 52.6406 8.03267 52.6406 8.74006C52.6406 9.44744 52.5227 10.054 52.2869 10.5597C52.0511 11.0625 51.7273 11.4503 51.3153 11.723C50.9034 11.9929 50.4332 12.1278 49.9048 12.1278C49.5071 12.1278 49.1818 12.0611 48.929 11.9276C48.679 11.794 48.483 11.6378 48.3409 11.4588C48.1989 11.2798 48.0895 11.1207 48.0128 10.9815H47.9062V12H46.6619ZM47.9105 8.72727C47.9105 9.1875 47.9773 9.59091 48.1108 9.9375C48.2443 10.2841 48.4375 10.5554 48.6903 10.7514C48.9432 10.9446 49.2528 11.0412 49.6193 11.0412C50 11.0412 50.3182 10.9403 50.5739 10.7386C50.8295 10.5341 51.0227 10.2571 51.1534 9.90767C51.2869 9.55824 51.3537 9.16477 51.3537 8.72727C51.3537 8.29545 51.2884 7.90767 51.1577 7.56392C51.0298 7.22017 50.8366 6.94886 50.5781 6.75C50.3224 6.55114 50.0028 6.4517 49.6193 6.4517C49.25 6.4517 48.9375 6.54687 48.6818 6.73722C48.429 6.92756 48.2372 7.19318 48.1065 7.53409C47.9759 7.875 47.9105 8.27273 47.9105 8.72727ZM54.0714 12V5.45455H55.3455V12H54.0714ZM54.7148 4.4446C54.4933 4.4446 54.3029 4.37074 54.1438 4.22301C53.9876 4.07244 53.9094 3.89347 53.9094 3.68608C53.9094 3.47585 53.9876 3.29687 54.1438 3.14915C54.3029 2.99858 54.4933 2.9233 54.7148 2.9233C54.9364 2.9233 55.1254 2.99858 55.2816 3.14915C55.4407 3.29687 55.5202 3.47585 55.5202 3.68608C55.5202 3.89347 55.4407 4.07244 55.2816 4.22301C55.1254 4.37074 54.9364 4.4446 54.7148 4.4446ZM60.1151 5.45455V6.47727H56.5398V5.45455H60.1151ZM57.4986 3.88636H58.7727V10.0781C58.7727 10.3253 58.8097 10.5114 58.8835 10.6364C58.9574 10.7585 59.0526 10.8423 59.169 10.8878C59.2884 10.9304 59.4176 10.9517 59.5568 10.9517C59.6591 10.9517 59.7486 10.9446 59.8253 10.9304C59.902 10.9162 59.9616 10.9048 60.0043 10.8963L60.2344 11.9489C60.1605 11.9773 60.0554 12.0057 59.919 12.0341C59.7827 12.0653 59.6122 12.0824 59.4077 12.0852C59.0724 12.0909 58.7599 12.0312 58.4702 11.9062C58.1804 11.7812 57.946 11.5881 57.767 11.3267C57.5881 11.0653 57.4986 10.7372 57.4986 10.3423V3.88636ZM64.2113 12.1321C63.5977 12.1321 63.0621 11.9915 62.6048 11.7102C62.1474 11.429 61.7923 11.0355 61.5394 10.5298C61.2866 10.0241 61.1602 9.43324 61.1602 8.7571C61.1602 8.07812 61.2866 7.48437 61.5394 6.97585C61.7923 6.46733 62.1474 6.07244 62.6048 5.79119C63.0621 5.50994 63.5977 5.36932 64.2113 5.36932C64.8249 5.36932 65.3604 5.50994 65.8178 5.79119C66.2752 6.07244 66.6303 6.46733 66.8832 6.97585C67.136 7.48437 67.2624 8.07812 67.2624 8.7571C67.2624 9.43324 67.136 10.0241 66.8832 10.5298C66.6303 11.0355 66.2752 11.429 65.8178 11.7102C65.3604 11.9915 64.8249 12.1321 64.2113 12.1321ZM64.2156 11.0625C64.6133 11.0625 64.9428 10.9574 65.2042 10.7472C65.4656 10.5369 65.6587 10.2571 65.7837 9.90767C65.9116 9.55824 65.9755 9.1733 65.9755 8.75284C65.9755 8.33523 65.9116 7.9517 65.7837 7.60227C65.6587 7.25 65.4656 6.96733 65.2042 6.75426C64.9428 6.54119 64.6133 6.43466 64.2156 6.43466C63.815 6.43466 63.4826 6.54119 63.2184 6.75426C62.957 6.96733 62.7624 7.25 62.6346 7.60227C62.5096 7.9517 62.4471 8.33523 62.4471 8.75284C62.4471 9.1733 62.5096 9.55824 62.6346 9.90767C62.7624 10.2571 62.957 10.5369 63.2184 10.7472C63.4826 10.9574 63.815 11.0625 64.2156 11.0625Z" fill="#040404"/>
</svg>
