<svg width="17" height="17" viewBox="0 0 17 17" fill="none" xmlns="http://www.w3.org/2000/svg">
<path d="M12.3356 10.1873C12.1252 10.0817 11.0904 9.57314 10.8977 9.50231C10.7043 9.43218 10.5641 9.39747 10.4231 9.60855C10.2836 9.81893 9.87982 10.2928 9.75728 10.4331C9.63473 10.574 9.51149 10.591 9.30111 10.4862C9.09074 10.3799 8.41215 10.1582 7.6082 9.44139C6.98274 8.88322 6.55987 8.19402 6.43732 7.98293C6.31478 7.77256 6.42457 7.65852 6.52941 7.55368C6.62432 7.45947 6.74049 7.30789 6.84532 7.18535C6.95086 7.0621 6.98557 6.97427 7.05641 6.83331C7.12653 6.69306 7.09182 6.57052 7.0387 6.46498C6.98557 6.35944 6.56482 5.32315 6.38987 4.90169C6.21845 4.49156 6.04491 4.54752 5.91599 4.54044C5.78148 4.53508 5.64686 4.53272 5.51224 4.53336C5.37199 4.53336 5.14391 4.58577 4.95124 4.79685C4.75858 5.00723 4.21458 5.51652 4.21458 6.55281C4.21458 7.58839 4.96895 8.58926 5.07378 8.73022C5.17933 8.87047 6.55845 10.9969 8.66999 11.9085C9.17219 12.1253 9.5639 12.2549 9.8699 12.3512C10.3742 12.512 10.8332 12.4893 11.1952 12.4348C11.5996 12.3746 12.4404 11.9255 12.6161 11.4339C12.7918 10.9423 12.7918 10.5209 12.7386 10.4331C12.6862 10.3452 12.5467 10.2928 12.3356 10.1873ZM8.49503 15.431H8.49219C7.23828 15.4311 6.00742 15.094 4.92858 14.455L4.67287 14.3034L2.023 14.999L2.72991 12.415L2.56345 12.1501C1.86252 11.0339 1.49171 9.74221 1.49387 8.42422C1.49458 4.56381 4.63603 1.42307 8.49786 1.42307C10.3679 1.42307 12.1259 2.15265 13.4477 3.47582C14.0998 4.12508 14.6167 4.89724 14.9685 5.74761C15.3202 6.59797 15.4998 7.50965 15.4969 8.42989C15.4948 12.2903 12.354 15.431 8.49503 15.431ZM14.4542 2.47069C13.6738 1.6851 12.7452 1.0622 11.7223 0.638095C10.6993 0.213991 9.60239 -0.00288734 8.49503 2.90257e-05C3.85191 2.90257e-05 0.0729582 3.77898 0.0708332 8.42352C0.0708332 9.90818 0.458291 11.3574 1.19566 12.6345L0 17L4.46603 15.8284C5.70108 16.5013 7.08505 16.8539 8.49149 16.8541H8.49503C13.1374 16.8541 16.9171 13.0751 16.9192 8.42989C16.9226 7.32296 16.7066 6.22634 16.2834 5.20346C15.8603 4.18058 15.2386 3.25175 14.4542 2.47069Z" fill="white"/>
</svg>
